<svg xmlns="http://www.w3.org/2000/svg" xmlns:xlink="http://www.w3.org/1999/xlink" viewBox="0 0 174.22 50"><defs><linearGradient id="Dégradé_sans_nom_16" x1="9.37" y1="24.9" x2="40.31" y2="24.9" gradientUnits="userSpaceOnUse"><stop offset="0" stop-color="#eb588d"/><stop offset="0.53" stop-color="#e61978"/><stop offset="1" stop-color="#eb588d"/></linearGradient></defs><title>scorpio-logo-hor-noshadow-v2-blue_1</title><g id="Calque_2" data-name="Calque 2"><g id="Calque_1-2" data-name="Calque 1"><rect x="1.71" y="1.71" width="46.58" height="46.58" style="fill:#27348b"/><path d="M46,50H4a4,4,0,0,1-4-4V4A4,4,0,0,1,4,0H46a4,4,0,0,1,4,4V46A4,4,0,0,1,46,50ZM4.78,3.42A1.36,1.36,0,0,0,3.42,4.78V45.22a1.36,1.36,0,0,0,1.36,1.36H45.22a1.36,1.36,0,0,0,1.36-1.36V4.78a1.36,1.36,0,0,0-1.36-1.36Z" style="fill:#e71d73"/><path d="M40.31,6.85h0c-14.77,2-15.87,9.37-17.72,17.69C21.75,28.33,21,37,9.37,38.1h0V43C24.59,41.89,26.19,30.27,27.2,25.23c.6-3,1.42-12.81,13.11-13.37h0Z" style="fill:url(#Dégradé_sans_nom_16)"/><path d="M27.61,25.39a31.22,31.22,0,0,1-2.41,8.29c2.15,4.52,6.32,8.83,15.43,9.47V38.3C29.67,37.21,28.43,29.44,27.61,25.39Z" style="fill:#e61978"/><path d="M68.93,21.9a2,2,0,0,0-.78-1.7,9.9,9.9,0,0,0-2.71-1.26,26,26,0,0,1-3.18-1.26c-2.67-1.32-4-3.12-4-5.42a4.86,4.86,0,0,1,1-3,6.49,6.49,0,0,1,2.83-2,10.94,10.94,0,0,1,4.11-.73,9.6,9.6,0,0,1,4,.79,6.37,6.37,0,0,1,2.75,2.27,5.89,5.89,0,0,1,1,3.35h-5a2.53,2.53,0,0,0-.77-2,3,3,0,0,0-2.09-.69,3.37,3.37,0,0,0-2.11.59,1.73,1.73,0,0,0,.08,2.93,10.73,10.73,0,0,0,3,1.34,17.83,17.83,0,0,1,3.52,1.48,5.91,5.91,0,0,1,3.35,5.32,5.05,5.05,0,0,1-2,4.25,9.08,9.08,0,0,1-5.6,1.55,11.08,11.08,0,0,1-4.54-.9,6.91,6.91,0,0,1-3.07-2.47,6.49,6.49,0,0,1-1-3.61h5a3.18,3.18,0,0,0,.85,2.45,4.1,4.1,0,0,0,2.79.78,3.18,3.18,0,0,0,1.95-.53A1.74,1.74,0,0,0,68.93,21.9Z" style="fill:#e71d73"/><path d="M93.16,20.4A7.47,7.47,0,0,1,92,24.21a7.06,7.06,0,0,1-3,2.56,10.28,10.28,0,0,1-4.39.91A8.1,8.1,0,0,1,78.22,25c-1.56-1.76-2.34-4.26-2.34-7.48v-1a12.59,12.59,0,0,1,1.05-5.32,8,8,0,0,1,3-3.51,8.5,8.5,0,0,1,4.6-1.24,8.93,8.93,0,0,1,6,2,7.85,7.85,0,0,1,2.6,5.46h-5a3.65,3.65,0,0,0-.95-2.71,3.88,3.88,0,0,0-2.72-.82,3,3,0,0,0-2.72,1.39,8.86,8.86,0,0,0-.91,4.43v1.47a9.93,9.93,0,0,0,.83,4.72,3,3,0,0,0,2.86,1.42A3.81,3.81,0,0,0,87.25,23a3.44,3.44,0,0,0,1-2.57Z" style="fill:#e71d73"/><path d="M94.7,19.58a9,9,0,0,1,.89-4.09,6.36,6.36,0,0,1,2.57-2.76,7.74,7.74,0,0,1,3.93-1,7.09,7.09,0,0,1,5.43,2.14,8.2,8.2,0,0,1,2,5.81v.17a7.92,7.92,0,0,1-2,5.69,7.06,7.06,0,0,1-5.4,2.11,7.17,7.17,0,0,1-5.26-2,7.67,7.67,0,0,1-2.14-5.32Zm4.78.3a5.79,5.79,0,0,0,.66,3.12,2.23,2.23,0,0,0,2,1q2.56,0,2.61-3.93v-.48q0-4.12-2.63-4.13-2.4,0-2.6,3.56Z" style="fill:#27348b"/><path d="M120.89,16.37l-1.57-.11c-1.51,0-2.47.47-2.9,1.42v9.71h-4.78V12.05h4.49l.15,2a3.72,3.72,0,0,1,3.36-2.26,4.85,4.85,0,0,1,1.34.17Z" style="fill:#27348b"/><path d="M136.86,19.83a9.26,9.26,0,0,1-1.61,5.71,5.14,5.14,0,0,1-4.35,2.14,4.44,4.44,0,0,1-3.47-1.55v7.16h-4.78V12.05h4.47l.14,1.42a4.42,4.42,0,0,1,3.62-1.71,5.2,5.2,0,0,1,4.41,2.1,9.35,9.35,0,0,1,1.57,5.75Zm-4.78-.29q0-4.1-2.38-4.09a2.25,2.25,0,0,0-2.27,1.22v6a2.33,2.33,0,0,0,2.3,1.28q2.28,0,2.35-3.94Z" style="fill:#27348b"/><path d="M148.31,20.33h-8.53V16.64h8.53Z" style="fill:#27348b"/><path d="M152,8.09a2.13,2.13,0,0,1,.74-1.67,3.15,3.15,0,0,1,3.83,0,2.13,2.13,0,0,1,.74,1.67,2.13,2.13,0,0,1-.74,1.67,3.11,3.11,0,0,1-3.83,0A2.13,2.13,0,0,1,152,8.09Zm5.08,19.3h-4.79V12.05h4.79Z" style="fill:#27348b"/><path d="M159.41,19.58a9,9,0,0,1,.9-4.09,6.34,6.34,0,0,1,2.56-2.76,7.79,7.79,0,0,1,3.93-1,7.06,7.06,0,0,1,5.43,2.14,8.16,8.16,0,0,1,2,5.81v.17a8,8,0,0,1-2,5.69,7.06,7.06,0,0,1-5.4,2.11,7.14,7.14,0,0,1-5.26-2,7.63,7.63,0,0,1-2.14-5.32Zm4.78.3a5.69,5.69,0,0,0,.67,3.12,2.22,2.22,0,0,0,2,1q2.55,0,2.61-3.93v-.48q0-4.12-2.64-4.13-2.4,0-2.59,3.56Z" style="fill:#27348b"/><path d="M62.2,44.45c.09-.74-.3-1.28-1.18-1.62l-1.12-.41-.36-.14c-1.11-.48-1.62-1.17-1.54-2.09a2,2,0,0,1,.48-1.2,2.68,2.68,0,0,1,1.13-.79,3.51,3.51,0,0,1,1.48-.26,2.81,2.81,0,0,1,1.35.34,2.11,2.11,0,0,1,.89.91,2.3,2.3,0,0,1,.24,1.29h-.72a1.74,1.74,0,0,0-.41-1.39,1.9,1.9,0,0,0-1.38-.55,2.82,2.82,0,0,0-1.59.43,1.6,1.6,0,0,0-.75,1.19,1.18,1.18,0,0,0,.35,1,3.58,3.58,0,0,0,1.5.75,4.21,4.21,0,0,1,1.89,1,1.9,1.9,0,0,1,.46,1.46,2.2,2.2,0,0,1-.49,1.22,2.78,2.78,0,0,1-1.14.79,3.93,3.93,0,0,1-1.54.26,3.24,3.24,0,0,1-1.47-.33A2.18,2.18,0,0,1,57,44.15h.72a1.62,1.62,0,0,0,.48,1.42,2.17,2.17,0,0,0,1.55.53,2.83,2.83,0,0,0,1.65-.44A1.66,1.66,0,0,0,62.2,44.45Z" style="fill:#e71d73"/><path d="M70.41,43.92A3.61,3.61,0,0,1,69.2,46,3.29,3.29,0,0,1,67,46.7a2.36,2.36,0,0,1-1.82-.81,3.34,3.34,0,0,1-.72-2.12,4.59,4.59,0,0,1,0-.91l.15-1a6,6,0,0,1,.73-2.09,3.83,3.83,0,0,1,1.34-1.37,3.21,3.21,0,0,1,1.73-.43,2.5,2.5,0,0,1,1.9.77,2.81,2.81,0,0,1,.67,2h-.71a2.35,2.35,0,0,0-.49-1.59,1.88,1.88,0,0,0-1.41-.59,2.5,2.5,0,0,0-2,.87,4.61,4.61,0,0,0-1.06,2.47l-.18,1.17,0,.53a3.55,3.55,0,0,0,.2,1.28,1.81,1.81,0,0,0,.64.9,1.78,1.78,0,0,0,1,.33,2.52,2.52,0,0,0,1.7-.51,3.17,3.17,0,0,0,1-1.65Z" style="fill:#e71d73"/><path d="M75.5,46.58a3.17,3.17,0,0,1,0-.44l.06-.44a3.29,3.29,0,0,1-1,.74,2.65,2.65,0,0,1-1.22.26,1.8,1.8,0,0,1-1.3-.51A1.47,1.47,0,0,1,71.56,45,1.85,1.85,0,0,1,72,43.86a2.5,2.5,0,0,1,1.09-.71,4.65,4.65,0,0,1,1.59-.26H76l.11-.73a1.28,1.28,0,0,0-.28-1,1.43,1.43,0,0,0-1-.42,2,2,0,0,0-1.2.35,1.45,1.45,0,0,0-.64.93h-.69a2,2,0,0,1,.86-1.36,2.84,2.84,0,0,1,1.74-.51,2,2,0,0,1,1.51.59,1.78,1.78,0,0,1,.43,1.48l-.53,3.19,0,.51a2.56,2.56,0,0,0,0,.62v.07Zm-2.07-.49a2.26,2.26,0,0,0,1.23-.31,2.75,2.75,0,0,0,1-.94l.24-1.4H74.76a3.56,3.56,0,0,0-1.74.38,1.35,1.35,0,0,0-.75,1.08,1,1,0,0,0,.28.85A1.18,1.18,0,0,0,73.43,46.09Z" style="fill:#27348b"/><path d="M78.13,43.4a5,5,0,0,1,.55-1.77,3,3,0,0,1,1-1.15A2.27,2.27,0,0,1,81,40.13a2.1,2.1,0,0,1,1,.26,1.71,1.71,0,0,1,.73.75l.65-3.56h.69l-1.57,9h-.65l.16-.84a2.48,2.48,0,0,1-2,1A1.65,1.65,0,0,1,78.62,46a3,3,0,0,1-.53-1.79,4.06,4.06,0,0,1,0-.7Zm.71.11a4.55,4.55,0,0,0,0,.84,2.22,2.22,0,0,0,.37,1.26,1.24,1.24,0,0,0,1,.48,2,2,0,0,0,1.14-.3,2.77,2.77,0,0,0,.83-.84l.51-3a1.73,1.73,0,0,0-.56-.89,1.54,1.54,0,0,0-1-.34,1.76,1.76,0,0,0-1.49.68,3.81,3.81,0,0,0-.76,2Z" style="fill:#27348b"/><path d="M88.32,46.58a3.17,3.17,0,0,1,0-.44l.06-.44a3.29,3.29,0,0,1-1,.74,2.65,2.65,0,0,1-1.22.26,1.82,1.82,0,0,1-1.3-.51A1.47,1.47,0,0,1,84.38,45a1.85,1.85,0,0,1,.43-1.09,2.5,2.5,0,0,1,1.09-.71,4.65,4.65,0,0,1,1.59-.26h1.29l.11-.73a1.28,1.28,0,0,0-.28-1,1.43,1.43,0,0,0-1-.42,2,2,0,0,0-1.2.35,1.45,1.45,0,0,0-.64.93H85a2,2,0,0,1,.86-1.36,2.84,2.84,0,0,1,1.74-.51,2,2,0,0,1,1.51.59,1.78,1.78,0,0,1,.43,1.48l-.53,3.19,0,.51a2.56,2.56,0,0,0,0,.62v.07Zm-2.07-.49a2.26,2.26,0,0,0,1.23-.31,2.75,2.75,0,0,0,1-.94l.24-1.4H87.58a3.56,3.56,0,0,0-1.74.38,1.35,1.35,0,0,0-.75,1.08,1,1,0,0,0,.28.85A1.18,1.18,0,0,0,86.25,46.09Z" style="fill:#27348b"/><path d="M97.5,46.58a2.14,2.14,0,0,1,0-.44l.05-.44a3.18,3.18,0,0,1-1,.74,2.62,2.62,0,0,1-1.22.26,1.82,1.82,0,0,1-1.3-.51A1.47,1.47,0,0,1,93.56,45,1.85,1.85,0,0,1,94,43.86a2.56,2.56,0,0,1,1.09-.71,4.73,4.73,0,0,1,1.59-.26H98l.1-.73a1.28,1.28,0,0,0-.28-1,1.41,1.41,0,0,0-1-.42,2,2,0,0,0-1.2.35,1.45,1.45,0,0,0-.64.93h-.69a2,2,0,0,1,.86-1.36,2.84,2.84,0,0,1,1.74-.51,2,2,0,0,1,1.51.59,1.75,1.75,0,0,1,.43,1.48l-.52,3.19,0,.51a2.14,2.14,0,0,0,0,.62l0,.07Zm-2.07-.49a2.26,2.26,0,0,0,1.23-.31,2.67,2.67,0,0,0,1-.94l.24-1.4H96.76a3.56,3.56,0,0,0-1.74.38,1.35,1.35,0,0,0-.75,1.08,1,1,0,0,0,.28.85A1.18,1.18,0,0,0,95.43,46.09Z" style="fill:#27348b"/><path d="M103.86,44.93c.06-.54-.26-.93-1-1.17l-1-.3c-.93-.31-1.36-.83-1.31-1.56a1.61,1.61,0,0,1,.73-1.29,2.62,2.62,0,0,1,1.63-.48,2.2,2.2,0,0,1,1.51.52A1.61,1.61,0,0,1,105,42h-.69a1.09,1.09,0,0,0-.35-.93,1.58,1.58,0,0,0-1-.37,1.92,1.92,0,0,0-1.12.32,1.11,1.11,0,0,0-.52.83c-.06.5.25.85.93,1.06l.73.21.39.13c.89.34,1.3.88,1.25,1.63a1.68,1.68,0,0,1-.66,1.25,2.7,2.7,0,0,1-1.58.54h-.24a2.85,2.85,0,0,1-1.15-.25,1.85,1.85,0,0,1-.79-.66,1.53,1.53,0,0,1-.24-1h.7a1.16,1.16,0,0,0,.4.94,1.72,1.72,0,0,0,1.11.36,2.19,2.19,0,0,0,1.2-.32A1.17,1.17,0,0,0,103.86,44.93Z" style="fill:#27348b"/><path d="M112.64,46.58a2.13,2.13,0,0,1,0-.44l0-.44a3.14,3.14,0,0,1-1,.74,2.68,2.68,0,0,1-1.22.26,1.84,1.84,0,0,1-1.31-.51,1.54,1.54,0,0,1-.45-1.24,1.92,1.92,0,0,1,.44-1.09,2.5,2.5,0,0,1,1.09-.71,4.65,4.65,0,0,1,1.59-.26h1.29l.11-.73a1.32,1.32,0,0,0-.28-1,1.43,1.43,0,0,0-1-.42,2,2,0,0,0-1.21.35A1.49,1.49,0,0,0,110,42h-.68a1.94,1.94,0,0,1,.85-1.36,2.87,2.87,0,0,1,1.75-.51,2.06,2.06,0,0,1,1.51.59,1.81,1.81,0,0,1,.43,1.48l-.53,3.19-.05.51a2.56,2.56,0,0,0,.05.62v.07Zm-2.08-.49a2.31,2.31,0,0,0,1.24-.31,2.72,2.72,0,0,0,1-.94l.24-1.4h-1.12a3.56,3.56,0,0,0-1.74.38,1.34,1.34,0,0,0-.74,1.08,1,1,0,0,0,.27.85A1.2,1.2,0,0,0,110.56,46.09Z" style="fill:#27348b"/><path d="M123.09,44.45c.09-.74-.3-1.28-1.18-1.62l-1.12-.41-.36-.14c-1.11-.48-1.62-1.17-1.54-2.09a2.13,2.13,0,0,1,.48-1.2,2.75,2.75,0,0,1,1.13-.79,3.53,3.53,0,0,1,1.48-.26,2.81,2.81,0,0,1,1.35.34,2.11,2.11,0,0,1,.89.91,2.3,2.3,0,0,1,.24,1.29h-.72a1.74,1.74,0,0,0-.41-1.39,1.9,1.9,0,0,0-1.38-.55,2.82,2.82,0,0,0-1.59.43,1.6,1.6,0,0,0-.75,1.19,1.16,1.16,0,0,0,.36,1,3.47,3.47,0,0,0,1.49.75,4.21,4.21,0,0,1,1.89,1,1.86,1.86,0,0,1,.46,1.46,2.2,2.2,0,0,1-.49,1.22,2.78,2.78,0,0,1-1.14.79,3.93,3.93,0,0,1-1.54.26,3.24,3.24,0,0,1-1.47-.33,2.18,2.18,0,0,1-1.24-2.22h.72a1.62,1.62,0,0,0,.48,1.42,2.17,2.17,0,0,0,1.55.53,2.81,2.81,0,0,0,1.65-.44A1.66,1.66,0,0,0,123.09,44.45Z" style="fill:#27348b"/><path d="M127.35,46.7a2.26,2.26,0,0,1-1.32-.42,2.38,2.38,0,0,1-.82-1.13,3.56,3.56,0,0,1-.19-1.54l0-.2a4.39,4.39,0,0,1,.52-1.67,3.29,3.29,0,0,1,1.12-1.21,2.5,2.5,0,0,1,1.44-.4,1.93,1.93,0,0,1,1.2.38,2.16,2.16,0,0,1,.71,1.05,3.52,3.52,0,0,1,.14,1.47l0,.43h-4.39v.14a2.77,2.77,0,0,0,.09,1.22,1.94,1.94,0,0,0,.59.93,1.52,1.52,0,0,0,1,.35,2.11,2.11,0,0,0,1-.21,3.31,3.31,0,0,0,.83-.63l.41.33a2.73,2.73,0,0,1-2.3,1.11Zm.73-6a1.82,1.82,0,0,0-1.36.54,3.55,3.55,0,0,0-.91,1.6h3.68l0-.09a2,2,0,0,0-.3-1.43A1.34,1.34,0,0,0,128.08,40.72Z" style="fill:#27348b"/><path d="M134.77,40.84a2.32,2.32,0,0,0-.46-.06,2,2,0,0,0-1.22.41,2,2,0,0,0-.75,1l-.75,4.36h-.69l1.1-6.34h.69l-.21,1a2.51,2.51,0,0,1,.83-.85,2,2,0,0,1,1.08-.29,1.65,1.65,0,0,1,.48.09Z" style="fill:#27348b"/><path d="M137.1,45.59l2.71-5.35h.74l-3.29,6.34h-.57l-1.32-6.34h.69Z" style="fill:#27348b"/><path d="M141.41,46.58h-.7l1.11-6.34h.69Zm.6-8.17c0-.25.19-.41.5-.48a.57.57,0,0,1,.33.14.44.44,0,0,1,0,.66.72.72,0,0,1-.34.15C142.15,38.84,142,38.68,142,38.41Z" style="fill:#27348b"/><path d="M145.76,46.11a1.83,1.83,0,0,0,1.22-.38,1.92,1.92,0,0,0,.7-1.1h.67a2.41,2.41,0,0,1-.93,1.52,2.6,2.6,0,0,1-1.7.56,2.19,2.19,0,0,1-1.29-.43,2.16,2.16,0,0,1-.75-1.11,3.87,3.87,0,0,1-.15-1.62l0-.25a4.83,4.83,0,0,1,.3-1.19,3.67,3.67,0,0,1,.62-1,2.88,2.88,0,0,1,.92-.71,2.55,2.55,0,0,1,1.21-.24,2,2,0,0,1,1.55.65,2.21,2.21,0,0,1,.54,1.61H148a1.68,1.68,0,0,0-.38-1.18,1.44,1.44,0,0,0-1.07-.48,1.92,1.92,0,0,0-1.29.43,2.65,2.65,0,0,0-.84,1.26,5.12,5.12,0,0,0-.26,1.72,2.32,2.32,0,0,0,.42,1.45A1.42,1.42,0,0,0,145.76,46.11Z" style="fill:#27348b"/><path d="M151.87,46.7a2.26,2.26,0,0,1-1.32-.42,2.38,2.38,0,0,1-.82-1.13,3.56,3.56,0,0,1-.18-1.54v-.2a4.24,4.24,0,0,1,.53-1.67,3.18,3.18,0,0,1,1.11-1.21,2.5,2.5,0,0,1,1.44-.4,1.93,1.93,0,0,1,1.2.38,2.16,2.16,0,0,1,.71,1.05,3.36,3.36,0,0,1,.14,1.47l-.05.43h-4.38l0,.14a2.77,2.77,0,0,0,.09,1.22,1.89,1.89,0,0,0,.6.93,1.48,1.48,0,0,0,1,.35,2.11,2.11,0,0,0,1-.21,3.31,3.31,0,0,0,.83-.63l.42.33a2.91,2.91,0,0,1-1,.84A2.77,2.77,0,0,1,151.87,46.7Zm.73-6a1.82,1.82,0,0,0-1.36.54,3.55,3.55,0,0,0-.91,1.6H154l0-.09a2.07,2.07,0,0,0-.29-1.43A1.37,1.37,0,0,0,152.6,40.72Z" style="fill:#27348b"/></g></g></svg>